<?xml version="1.0" encoding="UTF-8" standalone="no"?>
<svg
   xmlns:dc="http://purl.org/dc/elements/1.1/"
   xmlns:cc="http://creativecommons.org/ns#"
   xmlns:rdf="http://www.w3.org/1999/02/22-rdf-syntax-ns#"
   xmlns:svg="http://www.w3.org/2000/svg"
   xmlns="http://www.w3.org/2000/svg"
   xmlns:sodipodi="http://sodipodi.sourceforge.net/DTD/sodipodi-0.dtd"
   xmlns:inkscape="http://www.inkscape.org/namespaces/inkscape"
   width="520"
   height="300"
   viewBox="0 0 520 300"
   id="svg2"
   version="1.1"
   inkscape:version="0.48.0 r9654"
   sodipodi:docname="Halleffekt-Model.svg">
  <metadata
     id="metadata112">
    <rdf:RDF>
      <cc:Work
         rdf:about="">
        <dc:format>image/svg+xml</dc:format>
        <dc:type
           rdf:resource="http://purl.org/dc/dcmitype/StillImage" />
      </cc:Work>
    </rdf:RDF>
  </metadata>
  <defs
     id="defs110" />
  <sodipodi:namedview
     pagecolor="#ffffff"
     bordercolor="#666666"
     borderopacity="1"
     objecttolerance="10"
     gridtolerance="10"
     guidetolerance="10"
     inkscape:pageopacity="0"
     inkscape:pageshadow="2"
     inkscape:window-width="1024"
     inkscape:window-height="719"
     id="namedview108"
     showgrid="false"
     inkscape:zoom="1.0326923"
     inkscape:cx="260"
     inkscape:cy="150"
     inkscape:window-x="-4"
     inkscape:window-y="-4"
     inkscape:window-maximized="1"
     inkscape:current-layer="svg2" />
  <title
     id="title4">Produce by DWG to SVG Converter MX</title>
  <desc
     id="desc6">Produce by DWG to SVG Converter MX</desc>
  <path
     d="m 46.87,206.49 308.14,0 m 0,0 0,20.55 m 0,0 -308.14,0 m 0,0 0,-20.55"
     id="path32"
     inkscape:connector-curvature="0"
     style="fill:none;stroke:#000000;stroke-width:1.6;stroke-miterlimit:4;stroke-dasharray:none" />
  <path
     d="M 46.87,206.49 108.5,103.78"
     id="path34"
     inkscape:connector-curvature="0"
     style="fill:none;stroke:#000000;stroke-width:1.6;stroke-miterlimit:4;stroke-dasharray:none" />
  <path
     d="M 355.01,206.49 406.37,103.78"
     id="path36"
     inkscape:connector-curvature="0"
     style="fill:none;stroke:#000000;stroke-width:1.6;stroke-miterlimit:4;stroke-dasharray:none" />
  <path
     d="M 355.01,227.04 406.37,124.32"
     id="path38"
     inkscape:connector-curvature="0"
     style="fill:none;stroke:#000000;stroke-width:1.6;stroke-miterlimit:4;stroke-dasharray:none" />
  <path
     d="m 406.37,124.32 0,-20.54"
     id="path40"
     inkscape:connector-curvature="0"
     style="fill:none;stroke:#000000;stroke-width:1.6;stroke-miterlimit:4;stroke-dasharray:none" />
  <path
     d="m 406.37,103.78 -297.87,0"
     id="path42"
     inkscape:connector-curvature="0"
     style="fill:none;stroke:#000000;stroke-width:1.6;stroke-miterlimit:4;stroke-dasharray:none" />
  <path
     d="m 200.94,216.76 -30.82,61.63"
     id="path44"
     inkscape:connector-curvature="0"
     style="fill:none;stroke:#000000;stroke-width:1.6;stroke-miterlimit:4;stroke-dasharray:none" />
  <path
     d="m 283.11,52.42 225.97,0"
     id="path46"
     inkscape:connector-curvature="0"
     style="fill:none;stroke:#000000;stroke-width:1.6;stroke-miterlimit:4;stroke-dasharray:none" />
  <path
     d="m 170.12,278.39 225.98,0"
     id="path48"
     inkscape:connector-curvature="0"
     style="fill:none;stroke:#000000;stroke-width:1.6;stroke-miterlimit:4;stroke-dasharray:none" />
  <path
     d="M 503.95,62.69 401.23,268.12"
     id="path50"
     inkscape:connector-curvature="0"
     style="fill:none;stroke:#000000;stroke-width:1.6;stroke-miterlimit:4;stroke-dasharray:none" />
  <path
     d="m 195.8,196.22 -5.13,10.27"
     id="path52"
     inkscape:connector-curvature="0"
     style="fill:none;stroke:#000000;stroke-width:1.6;stroke-miterlimit:4;stroke-dasharray:none" />
  <path
     d="m 190.67,206.49 0,20.55"
     id="path54"
     inkscape:connector-curvature="0"
     style="fill:none;stroke:#000000;stroke-width:1.6;stroke-miterlimit:4;stroke-dasharray:none" />
  <path
     d="m 195.8,196.22 20.55,0"
     id="path56"
     inkscape:connector-curvature="0"
     style="fill:none;stroke:#000000;stroke-width:1.6;stroke-miterlimit:4;stroke-dasharray:none" />
  <path
     d="m 216.35,196.22 -5.14,10.27"
     id="path58"
     inkscape:connector-curvature="0"
     style="fill:none;stroke:#000000;stroke-width:1.6;stroke-miterlimit:4;stroke-dasharray:none" />
  <path
     d="m 211.21,206.49 0,20.55"
     id="path60"
     inkscape:connector-curvature="0"
     style="fill:none;stroke:#000000;stroke-width:1.6;stroke-miterlimit:4;stroke-dasharray:none" />
  <path
     d="M 257.43,103.78 283.11,52.42"
     id="path62"
     inkscape:connector-curvature="0"
     style="fill:none;stroke:#000000;stroke-width:1.6;stroke-miterlimit:4;stroke-dasharray:none" />
  <path
     d="M 503.95,62.69 490.16,78.76"
     id="path64"
     inkscape:connector-curvature="0"
     style="fill:none;stroke:#000000;stroke-width:1.6;stroke-miterlimit:4;stroke-dasharray:none" />
  <path
     d="m 499.34,83.36 4.61,-20.67"
     id="path66"
     inkscape:connector-curvature="0"
     style="fill:none;stroke:#000000;stroke-width:1.6;stroke-miterlimit:4;stroke-dasharray:none" />
  <path
     d="M 118.77,103.78 57.14,206.49"
     id="path68"
     inkscape:connector-curvature="0"
     style="fill:none;stroke:#000000;stroke-width:1.6;stroke-miterlimit:4;stroke-dasharray:none" />
  <path
     d="m 57.14,206.49 0,20.55"
     id="path70"
     inkscape:connector-curvature="0"
     style="fill:none;stroke:#000000;stroke-width:1.6;stroke-miterlimit:4;stroke-dasharray:none" />
  <path
     d="m 344.74,227.04 0,-20.55"
     id="path72"
     inkscape:connector-curvature="0"
     style="fill:none;stroke:#000000;stroke-width:1.6;stroke-miterlimit:4;stroke-dasharray:none" />
  <path
     d="M 344.74,206.49 396.1,103.78"
     id="path74"
     inkscape:connector-curvature="0"
     style="fill:#000000;stroke:#000000;stroke-width:1.60000000000000010;stroke-miterlimit:4;stroke-dasharray:none;fill-opacity:1" />
  <path
     d="m 226.62,155.14 0,-133.53"
     id="path76"
     inkscape:connector-curvature="0"
     style="fill:none;stroke:#000000;stroke-width:2;stroke-miterlimit:4;stroke-dasharray:none" />
  <path
     d="m 226.62,155.14 5.13,-20.55"
     id="path78"
     inkscape:connector-curvature="0"
     style="fill:none;stroke:#000000;stroke-width:2;stroke-miterlimit:4;stroke-dasharray:none" />
  <path
     d="m 221.48,134.59 5.14,20.55"
     id="path80"
     inkscape:connector-curvature="0"
     style="fill:none;stroke:#000000;stroke-width:2;stroke-miterlimit:4;stroke-dasharray:none" />
  <path
     d="m 72.55,165.41 -61.63,0"
     id="path82"
     inkscape:connector-curvature="0"
     style="fill:none;stroke:#000000;stroke-width:2;stroke-miterlimit:4;stroke-dasharray:none" />
  <path
     d="m 10.92,165.41 20.54,-5.14"
     id="path84"
     inkscape:connector-curvature="0"
     style="fill:none;stroke:#000000;stroke-width:2;stroke-miterlimit:4;stroke-dasharray:none" />
  <path
     d="M 31.46,170.54 10.92,165.41"
     id="path86"
     inkscape:connector-curvature="0"
     style="fill:none;stroke:#000000;stroke-width:2;stroke-miterlimit:4;stroke-dasharray:none" />
  <path
     d="m 42.52,144.06 -0.25,0.8 -12.25,0 0.32,-0.8 0.93,-0.02 1.23,-0.16 0.3,-0.13 0.49,-0.19 0.73,-0.52 0.23,-0.34 0.37,-0.52 0.75,-1.88 0.39,-1.35 5.23,-18.19 0.33,-1.14 0.34,-1.71 0,-0.58 0,-0.29 -0.15,-0.49 -0.14,-0.2 -0.15,-0.2 -0.44,-0.3 -0.29,-0.11 -0.29,-0.1 -1.15,-0.11 -0.86,0 0.27,-0.8 11.51,0 -0.25,0.8 -0.71,-0.01 -1.05,0.17 -0.35,0.18 -0.5,0.24 -0.76,0.69 -0.26,0.45 -0.26,0.44 -0.67,1.99 -0.42,1.53 -5.23,18.18 -0.35,1.16 -0.36,1.46 0,0.32 0,0.25 0.14,0.44 0.14,0.18 0.14,0.17 0.44,0.28 0.31,0.1 0.31,0.09 1.27,0.16 0.97,0.06 0,0 z"
     id="path88"
     inkscape:connector-curvature="0"
     style="fill:#000000;fill-rule:evenodd;stroke-width:1.6;stroke-miterlimit:4;stroke-dasharray:none" />
  <path
     d="m 453.49,191.76 12.71,0 -0.24,0.81 -0.98,0.02 -1.4,0.18 -0.41,0.17 -0.42,0.16 -0.71,0.57 -0.3,0.42 -0.29,0.41 -0.62,1.53 -0.32,1.12 -3.32,11.25 -0.44,1.5 -0.53,1.97 -0.08,0.47 -0.13,0.65 -0.14,1.2 0,0.56 0,1.22 1.04,2.07 1.04,0.84 1.03,0.85 2.78,0.84 1.75,0 1.14,0 2.01,-0.41 0.88,-0.42 0.87,-0.41 1.5,-1.17 0.62,-0.75 0.62,-0.75 1.14,-2.03 0.51,-1.28 0.52,-1.28 0.9,-2.6 0.38,-1.31 2.64,-9.21 0.5,-1.72 0.5,-2.25 0,-0.52 0,-0.37 -0.34,-0.63 -0.34,-0.26 -0.34,-0.26 -1.37,-0.32 -1.04,-0.05 0.25,-0.81 9.56,0 -0.24,0.81 -0.85,0 -1.22,0.16 -0.37,0.16 -0.37,0.16 -0.65,0.59 -0.28,0.42 -0.28,0.42 -0.62,1.63 -0.34,1.21 -3.39,11.74 -0.81,2.86 -1.47,4.02 -0.64,1.17 -0.65,1.16 -1.98,1.95 -1.34,0.79 -1.34,0.78 -3.32,0.79 -1.99,0 -2.28,0 -3.69,-1.28 -1.4,-1.29 -1.4,-1.28 -1.4,-2.94 0,-1.65 0,-0.66 0.12,-1.39 0.13,-0.75 0.09,-0.49 0.44,-1.69 0.35,-1.2 3.04,-10.25 0.31,-1.12 0.31,-1.63 0,-0.52 0,-0.42 -0.32,-0.64 -0.32,-0.22 -0.31,-0.23 -1.6,-0.3 -1.28,-0.06 0.23,-0.81 z"
     id="path90"
     inkscape:connector-curvature="0"
     style="fill:#000000;fill-rule:evenodd;stroke-width:1.6;stroke-miterlimit:4;stroke-dasharray:none" />
  <path
     d="m 485.75,224.4 11.22,0 0,-6.93 0,-0.92 -0.11,-1.21 -0.12,-0.29 -0.09,-0.22 -0.37,-0.38 -0.29,-0.16 -0.38,-0.21 -0.81,-0.21 -0.43,0 -0.85,0 0,-0.67 10.31,0 0,0.67 -0.85,0 -0.43,0 -0.81,0.2 -0.38,0.2 -0.29,0.14 -0.38,0.43 -0.11,0.29 -0.1,0.28 -0.1,1.17 0,0.89 0,15.57 0,0.91 0.11,1.21 0.12,0.29 0.09,0.22 0.36,0.39 0.28,0.16 0.39,0.21 0.82,0.21 0.43,0 0.85,0 0,0.67 -10.31,0 0,-0.67 0.85,0 0.74,0 1.08,-0.43 0.34,-0.44 0.22,-0.28 0.22,-1.37 0,-1.08 0,-7.33 -11.22,0 0,7.33 0,0.91 0.11,1.21 0.12,0.29 0.08,0.22 0.38,0.39 0.28,0.16 0.38,0.21 0.81,0.21 0.42,0 0.87,0 0,0.67 -10.31,0 0,-0.67 0.85,0 0.75,0 1.08,-0.43 0.34,-0.44 0.22,-0.28 0.21,-1.37 0,-1.08 0,-15.57 0,-0.92 -0.12,-1.21 -0.11,-0.29 -0.09,-0.22 -0.37,-0.38 -0.27,-0.16 -0.39,-0.21 -0.82,-0.21 -0.43,0 -0.85,0 0,-0.67 10.31,0 0,0.67 -0.87,0 -0.42,0 -0.81,0.2 -0.38,0.2 -0.27,0.14 -0.39,0.43 -0.1,0.29 -0.11,0.28 -0.1,1.17 0,0.89 0,6.93 z"
     id="path92"
     inkscape:connector-curvature="0"
     style="fill:#000000;fill-rule:evenodd;stroke-width:1.6;stroke-miterlimit:4;stroke-dasharray:none" />
  <path
     d="m 247.16,103.78 -5.14,10.27"
     id="path94"
     inkscape:connector-curvature="0"
     style="fill:#000000;stroke:#000000;stroke-width:1.60000000000000010;stroke-miterlimit:4;stroke-dasharray:none;fill-opacity:1" />
  <path
     d="m 242.02,114.05 20.55,0"
     id="path96"
     inkscape:connector-curvature="0"
     style="fill:#000000;stroke:#000000;stroke-width:1.60000000000000010;stroke-miterlimit:4;stroke-dasharray:none;fill-opacity:1" />
  <path
     d="m 262.57,114.05 5.13,-10.27"
     id="path98"
     inkscape:connector-curvature="0"
     style="fill:#000000;stroke:#000000;stroke-width:1.60000000000000010;stroke-miterlimit:4;stroke-dasharray:none;fill-opacity:1" />
  <path
     d="m 380.69,165.41 56.49,0"
     id="path100"
     inkscape:connector-curvature="0"
     style="fill:none;stroke:#000000;stroke-width:2;stroke-miterlimit:4;stroke-dasharray:none" />
  <path
     d="m 380.69,165.41 25.68,-5.14"
     id="path102"
     inkscape:connector-curvature="0"
     style="fill:none;stroke:#000000;stroke-width:2;stroke-miterlimit:4;stroke-dasharray:none" />
  <path
     d="m 406.37,170.54 -25.68,-5.13"
     id="path104"
     inkscape:connector-curvature="0"
     style="fill:none;stroke:#000000;stroke-width:2;stroke-miterlimit:4;stroke-dasharray:none" />
  <path
     d="m 197.26,48.77 0.31,-0.81 10.85,0 1.37,0 2.43,0.43 1.07,0.42 1.08,0.42 1.6,1.17 0.53,0.76 0.53,0.75 0.53,1.6 0,0.84 0,1.3 -0.99,2.34 -0.99,1.05 -1,1.05 -3.24,1.55 -2.24,0.49 1.49,0.52 2.19,1.36 0.7,0.84 0.7,0.85 0.7,1.86 0,1.01 0,1.12 -0.58,2.15 -0.58,1.03 -0.57,1.02 -1.49,1.59 -0.91,0.57 -0.9,0.57 -2.19,0.83 -1.28,0.27 -0.91,0.19 -2.85,0.19 -1.93,0 -11.06,0 0.29,-0.8 0.87,-0.02 1.18,-0.17 0.31,-0.15 0.44,-0.19 0.64,-0.5 0.19,-0.31 0.26,-0.43 0.71,-1.94 0.45,-1.51 5.25,-18.27 0.34,-1.15 0.35,-1.63 0,-0.46 0,-0.41 -0.31,-0.65 -0.3,-0.24 -0.31,-0.24 -1.16,-0.24 -0.86,0 -0.19,0 -0.35,-0.01 -0.17,-0.01 0,0 z m 0.31,27.38 1.22,0.16 1.92,0.15 0.69,0 1.76,0 3.13,-1.04 1.36,-1.05 1.36,-1.05 1.37,-2.84 0,-1.8 0,-1.37 -0.86,-2.14 -0.85,-0.77 -0.85,-0.77 -2.76,-0.77 -1.91,0 -0.36,0 -0.9,0.05 -0.52,0.04 -3.8,13.2 z m 4.28,-14.86 0.72,0.01 1.04,0.02 0.32,0 2.31,0 3.44,-1 1.13,-1.01 1.12,-1 1.13,-2.52 0,-1.51 0,-1.14 -0.69,-1.78 -0.7,-0.64 -0.69,-0.64 -2.22,-0.64 -1.52,0 -0.41,0 -1.03,0.14 -0.63,0.13 -3.32,11.58 z"
     id="path106"
     inkscape:connector-curvature="0"
     style="fill:#000000;fill-rule:evenodd;stroke-width:1.6;stroke-miterlimit:4;stroke-dasharray:none" />
  <path
     style="fill:#000000;fill-opacity:1;fill-rule:evenodd;stroke:#000000;stroke-width:1.93668532;stroke-linecap:round;stroke-linejoin:round;stroke-miterlimit:4;stroke-opacity:1;stroke-dasharray:none;stroke-dashoffset:0"
     d="m 244.89385,112.17066 c 0,-0.24823 0.73434,-1.99125 1.63187,-3.87338 l 1.63186,-3.42205 8.53574,0 c 4.69465,0 8.53573,0.2031 8.53573,0.45132 0,0.24823 -0.73434,1.99124 -1.63186,3.87337 l -1.63187,3.42205 -8.53573,0 c -4.69465,0 -8.53574,-0.20309 -8.53574,-0.45131 z"
     id="path3857"
     inkscape:connector-curvature="0" />
  <path
     style="fill:#000000;fill-opacity:1;fill-rule:evenodd;stroke:#000000;stroke-width:1.93668532;stroke-linecap:round;stroke-linejoin:round;stroke-miterlimit:4;stroke-opacity:1;stroke-dasharray:none;stroke-dashoffset:0"
     d="m 194.54004,201.7095 1.97604,-3.87337 8.71509,0 8.71508,0 -1.97605,3.87337 -1.97604,3.87337 -8.71509,0 -8.71508,0 1.97605,-3.87337 z"
     id="path3859"
     inkscape:connector-curvature="0" />
  <path
     style="fill:#000000;fill-opacity:1;fill-rule:evenodd;stroke:#000000;stroke-width:1.93668532;stroke-linecap:round;stroke-linejoin:round;stroke-miterlimit:4;stroke-opacity:1;stroke-dasharray:none;stroke-dashoffset:0"
     d="m 191.63501,216.71881 0,-9.19926 9.19925,0 9.19926,0 0,9.19926 0,9.19925 -5.81006,0 c -3.19553,0 -5.81005,-0.23523 -5.81005,-0.52274 0,-0.28752 0.87151,-2.23105 1.93668,-4.31897 2.28886,-4.48654 2.33652,-4.84171 0.6497,-4.84171 -0.70784,0 -2.30747,2.17877 -3.55472,4.84171 -1.50759,3.21877 -2.86144,4.84171 -4.0389,4.84171 -1.59169,0 -1.77116,-0.93213 -1.77116,-9.19925 z"
     id="path3861"
     inkscape:connector-curvature="0" />
  <path
     style="fill:#000000;fill-opacity:1;fill-rule:evenodd;stroke:#000000;stroke-width:1.93668532;stroke-linecap:round;stroke-linejoin:round;stroke-miterlimit:4;stroke-opacity:1;stroke-dasharray:none;stroke-dashoffset:0"
     d="m 49.528145,204.92084 c 3.757065,-6.85587 22.599426,-37.67363 23.178821,-37.91029 0.434632,-0.17753 0.790241,-0.76243 0.790241,-1.29978 0,-0.53735 8.085591,-14.44517 17.967981,-30.90627 l 17.967982,-29.92927 3.36042,0 3.36043,0 -1.44086,2.66295 c -0.79247,1.46461 -14.23025,24.01489 -29.861745,50.11173 l -28.420892,47.44879 -3.667785,0.30631 c -2.017281,0.16847 -3.472849,-0.0494 -3.234593,-0.48417 l 0,0 z"
     id="path3863"
     inkscape:connector-curvature="0" />
  <path
     style="fill:#000000;fill-opacity:1;fill-rule:evenodd;stroke:#000000;stroke-width:1.93668532;stroke-linecap:round;stroke-linejoin:round;stroke-miterlimit:4;stroke-opacity:1;stroke-dasharray:none;stroke-dashoffset:0"
     d=""
     id="path3865"
     inkscape:connector-curvature="0" />
  <path
     style="fill:#000000;fill-opacity:1;fill-rule:evenodd;stroke:#000000;stroke-width:1.93668532;stroke-linecap:round;stroke-linejoin:round;stroke-miterlimit:4;stroke-opacity:1;stroke-dasharray:none;stroke-dashoffset:0"
     d=""
     id="path3877"
     inkscape:connector-curvature="0" />
  <path
     style="fill:#000000;fill-opacity:1;fill-rule:evenodd;stroke:#000000;stroke-width:1.93668532;stroke-linecap:round;stroke-linejoin:round;stroke-miterlimit:4;stroke-opacity:1;stroke-dasharray:none;stroke-dashoffset:0"
     d=""
     id="path3797"
     inkscape:connector-curvature="0" />
  <path
     style="fill:#000000;fill-opacity:1;fill-rule:evenodd;stroke:#000000;stroke-width:1.93668532;stroke-linecap:round;stroke-linejoin:round;stroke-miterlimit:4;stroke-opacity:1;stroke-dasharray:none;stroke-dashoffset:0"
     d=""
     id="path3799"
     inkscape:connector-curvature="0" />
  <path
     style="fill:#000000;fill-opacity:1;fill-rule:evenodd;stroke:#000000;stroke-width:1.93668532;stroke-linecap:round;stroke-linejoin:round;stroke-miterlimit:4;stroke-opacity:1;stroke-dasharray:none;stroke-dashoffset:0"
     d=""
     id="path3801"
     inkscape:connector-curvature="0" />
  <path
     style="fill:#000000;fill-opacity:1;fill-rule:evenodd;stroke:#000000;stroke-width:1.93668532;stroke-linecap:round;stroke-linejoin:round;stroke-miterlimit:4;stroke-opacity:1;stroke-dasharray:none;stroke-dashoffset:0"
     d=""
     id="path3803"
     inkscape:connector-curvature="0" />
  <path
     style="fill:#000000;fill-opacity:1;fill-rule:evenodd;stroke:#000000;stroke-width:1.93668532;stroke-linecap:round;stroke-linejoin:round;stroke-miterlimit:4;stroke-opacity:1;stroke-dasharray:none;stroke-dashoffset:0"
     d=""
     id="path3821"
     inkscape:connector-curvature="0" />
  <path
     style="fill:#000000;fill-opacity:1;fill-rule:evenodd;stroke:#000000;stroke-width:1.93668532;stroke-linecap:round;stroke-linejoin:round;stroke-miterlimit:4;stroke-opacity:1;stroke-dasharray:none;stroke-dashoffset:0"
     d=""
     id="path3823"
     inkscape:connector-curvature="0" />
  <path
     style="fill:#000000;fill-opacity:1;fill-rule:evenodd;stroke:#000000;stroke-width:1.93668532;stroke-linecap:round;stroke-linejoin:round;stroke-miterlimit:4;stroke-opacity:1;stroke-dasharray:none;stroke-dashoffset:0"
     d="m 371.74674,155.22905 25.18056,-50.35382 3.38738,0 c 1.86305,0 3.38737,0.21677 3.38737,0.4817 0,0.26493 -11.2187,22.92415 -24.93045,50.35382 l -24.93044,49.87212 -3.63749,0 -3.63749,0 25.18056,-50.35382 z"
     id="path3825"
     inkscape:connector-curvature="0" />
  <path
     style="fill:#000000;fill-opacity:1;fill-rule:evenodd;stroke:#000000;stroke-width:1.93668532;stroke-linecap:round;stroke-linejoin:round;stroke-miterlimit:4;stroke-opacity:1;stroke-dasharray:none;stroke-dashoffset:0"
     d=""
     id="path3829"
     inkscape:connector-curvature="0" />
  <path
     style="fill:#000000;fill-opacity:1;fill-rule:evenodd;stroke:#000000;stroke-width:1.93668532;stroke-linecap:round;stroke-linejoin:round;stroke-miterlimit:4;stroke-opacity:1;stroke-dasharray:none;stroke-dashoffset:0"
     d="m 356.35911,213.81378 0,-6.7784 24.10271,-47.93296 24.10272,-47.93296 0,6.7784 0,6.7784 -24.10272,47.93296 -24.10271,47.93296 0,-6.7784 z"
     id="path3831"
     inkscape:connector-curvature="0" />
</svg>
